<?xml version="1.0" standalone="no"?>
<svg viewBox="0 0 200 200" xmlns="http://www.w3.org/2000/svg">
  <path fill="#FFD6E8" d="M36.5,-51.9C49.1,-48.6,62.5,-41.6,68.9,-30.6C75.2,-19.6,74.6,-4.5,74.1,11.9C73.6,28.2,73.4,45.8,64,54.1C54.7,62.4,36.2,61.5,21.1,61C6,60.4,-5.8,60.3,-19.6,59.6C-33.5,58.9,-49.3,57.6,-60.2,49.6C-71.1,41.6,-77.2,26.8,-81.4,10.5C-85.6,-5.8,-88.1,-23.6,-81.9,-37.6C-75.8,-51.7,-61.2,-62,-46.1,-64.3C-31,-66.5,-15.5,-60.6,-1.8,-57.8C11.9,-55,23.8,-55.3,36.5,-51.9Z" transform="translate(100 100)" />
</svg>
